<svg xmlns="http://www.w3.org/2000/svg" width="1240" height="660" viewBox="0 0 1240 660" role="img" aria-labelledby="title">
<title id="title">Antenna design, CST simulation and hardware validation process</title>
<defs><marker id="arrow" markerWidth="8" markerHeight="8" refX="7" refY="4" orient="auto"><path d="M0 0L8 4L0 8Z" fill="#304b61"/></marker></defs>
<rect width="1240" height="660" fill="white"/>
<rect x="15" y="15" width="340" height="625" rx="8" fill="#fafbfd" stroke="#ccd6df"/>
<text x="185.0" y="43" text-anchor="middle" font-family="Arial, sans-serif" font-size="17" font-weight="bold" fill="#142b3b">1. Antenna design and CST</text>
<rect x="385" y="15" width="460" height="625" rx="8" fill="#fafbfd" stroke="#ccd6df"/>
<text x="615.0" y="43" text-anchor="middle" font-family="Arial, sans-serif" font-size="17" font-weight="bold" fill="#142b3b">2. Evaluate and refine</text>
<rect x="875" y="15" width="350" height="625" rx="8" fill="#fafbfd" stroke="#ccd6df"/>
<text x="1050.0" y="43" text-anchor="middle" font-family="Arial, sans-serif" font-size="17" font-weight="bold" fill="#142b3b">3. Hardware validation: pending</text>
<rect x="40" y="75" width="290" height="65" rx="5" fill="#eaf2f8" stroke="#285577" stroke-width="1.5"/>
<text x="185.0" y="102.5" text-anchor="middle" font-family="Arial, sans-serif" font-size="15" fill="#142b3b">2.45 GHz target</text>
<text x="185.0" y="122.5" text-anchor="middle" font-family="Arial, sans-serif" font-size="15" fill="#142b3b">Available PCB space</text>
<rect x="40" y="185" width="290" height="65" rx="5" fill="#eaf2f8" stroke="#285577" stroke-width="1.5"/>
<text x="185.0" y="212.5" text-anchor="middle" font-family="Arial, sans-serif" font-size="15" fill="#142b3b">IFA geometry and materials</text>
<text x="185.0" y="232.5" text-anchor="middle" font-family="Arial, sans-serif" font-size="15" fill="#142b3b">Feed and matching</text>
<rect x="40" y="295" width="290" height="65" rx="5" fill="#eaf2f8" stroke="#285577" stroke-width="1.5"/>
<text x="185.0" y="322.5" text-anchor="middle" font-family="Arial, sans-serif" font-size="15" fill="#142b3b">CST model setup</text>
<text x="185.0" y="342.5" text-anchor="middle" font-family="Arial, sans-serif" font-size="15" fill="#142b3b">Boundaries, mesh and monitors</text>
<rect x="40" y="405" width="290" height="65" rx="5" fill="#eaf2f8" stroke="#285577" stroke-width="1.5"/>
<text x="185.0" y="432.5" text-anchor="middle" font-family="Arial, sans-serif" font-size="15" fill="#142b3b">CST Time Domain HEX</text>
<text x="185.0" y="452.5" text-anchor="middle" font-family="Arial, sans-serif" font-size="15" fill="#142b3b">Electromagnetic solve</text>
<rect x="40" y="515" width="290" height="65" rx="5" fill="#eaf2f8" stroke="#285577" stroke-width="1.5"/>
<text x="185.0" y="542.5" text-anchor="middle" font-family="Arial, sans-serif" font-size="15" fill="#142b3b">Native CST results</text>
<text x="185.0" y="562.5" text-anchor="middle" font-family="Arial, sans-serif" font-size="15" fill="#142b3b">S11, efficiency and farfield</text>
<path d="M185 140V185" fill="none" stroke="#304b61" stroke-width="1.5" marker-end="url(#arrow)"/>
<path d="M185 250V295" fill="none" stroke="#304b61" stroke-width="1.5" marker-end="url(#arrow)"/>
<path d="M185 360V405" fill="none" stroke="#304b61" stroke-width="1.5" marker-end="url(#arrow)"/>
<path d="M185 470V515" fill="none" stroke="#304b61" stroke-width="1.5" marker-end="url(#arrow)"/>
<rect x="430" y="75" width="365" height="65" rx="5" fill="#eaf2f8" stroke="#285577" stroke-width="1.5"/>
<text x="612.5" y="102.5" text-anchor="middle" font-family="Arial, sans-serif" font-size="15" fill="#142b3b">Assess impedance and S11</text>
<text x="612.5" y="122.5" text-anchor="middle" font-family="Arial, sans-serif" font-size="15" fill="#142b3b">Gain and efficiency</text>
<rect x="425" y="245" width="195" height="80" rx="5" fill="#eaf2f8" stroke="#285577" stroke-width="1.5"/>
<text x="522.5" y="270.0" text-anchor="middle" font-family="Arial, sans-serif" font-size="15" fill="#142b3b">Refine mesh</text>
<text x="522.5" y="290.0" text-anchor="middle" font-family="Arial, sans-serif" font-size="15" fill="#142b3b">Compare resonance</text>
<text x="522.5" y="310.0" text-anchor="middle" font-family="Arial, sans-serif" font-size="15" fill="#142b3b">and RF results</text>
<rect x="640" y="245" width="180" height="80" rx="5" fill="#eaf2f8" stroke="#285577" stroke-width="1.5"/>
<text x="730.0" y="270.0" text-anchor="middle" font-family="Arial, sans-serif" font-size="15" fill="#142b3b">Tune radiator, feed</text>
<text x="730.0" y="290.0" text-anchor="middle" font-family="Arial, sans-serif" font-size="15" fill="#142b3b">or matching</text>
<text x="730.0" y="310.0" text-anchor="middle" font-family="Arial, sans-serif" font-size="15" fill="#142b3b">Solve again</text>
<rect x="430" y="445" width="365" height="80" rx="5" fill="#eaf2f8" stroke="#285577" stroke-width="1.5"/>
<text x="612.5" y="470.0" text-anchor="middle" font-family="Arial, sans-serif" font-size="15" fill="#142b3b">Current free-space design</text>
<text x="612.5" y="490.0" text-anchor="middle" font-family="Arial, sans-serif" font-size="15" fill="#142b3b">Matching target achieved</text>
<text x="612.5" y="510.0" text-anchor="middle" font-family="Arial, sans-serif" font-size="15" fill="#142b3b">Convergence incomplete</text>
<path d="M612 140V200H522V245" fill="none" stroke="#304b61" stroke-width="1.5" marker-end="url(#arrow)"/>
<path d="M645 140V190H730V245" fill="none" stroke="#304b61" stroke-width="1.5" marker-end="url(#arrow)"/>
<path d="M730 325V380H838V107H795" fill="none" stroke="#304b61" stroke-width="1.5" marker-end="url(#arrow)"/>
<path d="M522 325V405H612V445" fill="none" stroke="#304b61" stroke-width="1.5" marker-end="url(#arrow)"/>
<text x="728" y="180" text-anchor="middle" font-family="Arial, sans-serif" font-size="14" fill="#304b61">If matching fails</text>
<rect x="900" y="110" width="300" height="75" rx="5" fill="#f5f5f5" stroke="#777" stroke-width="1.5" stroke-dasharray="6 4"/>
<text x="1050.0" y="142.5" text-anchor="middle" font-family="Arial, sans-serif" font-size="15" fill="#142b3b">Physical RF connection</text>
<text x="1050.0" y="162.5" text-anchor="middle" font-family="Arial, sans-serif" font-size="15" fill="#142b3b">Capacitor and PCB footprint</text>
<rect x="900" y="240" width="300" height="75" rx="5" fill="#f5f5f5" stroke="#777" stroke-width="1.5" stroke-dasharray="6 4"/>
<text x="1050.0" y="272.5" text-anchor="middle" font-family="Arial, sans-serif" font-size="15" fill="#142b3b">Frame and head loading</text>
<text x="1050.0" y="292.5" text-anchor="middle" font-family="Arial, sans-serif" font-size="15" fill="#142b3b">SAR and tolerances</text>
<rect x="900" y="370" width="300" height="75" rx="5" fill="#f5f5f5" stroke="#777" stroke-width="1.5" stroke-dasharray="6 4"/>
<text x="1050.0" y="402.5" text-anchor="middle" font-family="Arial, sans-serif" font-size="15" fill="#142b3b">Build and measure prototype</text>
<text x="1050.0" y="422.5" text-anchor="middle" font-family="Arial, sans-serif" font-size="15" fill="#142b3b">VNA, gain and efficiency</text>
<rect x="900" y="500" width="300" height="75" rx="5" fill="#f5f5f5" stroke="#777" stroke-width="1.5" stroke-dasharray="6 4"/>
<text x="1050.0" y="532.5" text-anchor="middle" font-family="Arial, sans-serif" font-size="15" fill="#142b3b">Complete release checks</text>
<text x="1050.0" y="552.5" text-anchor="middle" font-family="Arial, sans-serif" font-size="15" fill="#142b3b">Then fabrication output</text>
<path d="M1050 185V240" fill="none" stroke="#304b61" stroke-width="1.5" marker-end="url(#arrow)" stroke-dasharray="5 4"/>
<path d="M1050 315V370" fill="none" stroke="#304b61" stroke-width="1.5" marker-end="url(#arrow)" stroke-dasharray="5 4"/>
<path d="M1050 445V500" fill="none" stroke="#304b61" stroke-width="1.5" marker-end="url(#arrow)" stroke-dasharray="5 4"/>
<path d="M355 340H385" fill="none" stroke="#304b61" stroke-width="1.5" marker-end="url(#arrow)"/>
<path d="M845 340H875" fill="none" stroke="#304b61" stroke-width="1.5" marker-end="url(#arrow)" stroke-dasharray="5 4"/>
</svg>
